<svg width="184" height="184" viewBox="0 0 184 184" fill="none" xmlns="http://www.w3.org/2000/svg">
<path fill-rule="evenodd" clip-rule="evenodd" d="M164.058 164.096C158.333 169.806 149.059 169.806 143.327 164.096L91.5019 112.27L39.6761 164.096C33.9519 169.806 24.6701 169.806 18.9459 164.096C13.2216 158.313 13.2216 149.09 18.9459 143.307L70.7716 91.4813L18.9459 39.656C13.2216 33.9464 13.2216 24.6495 18.9459 18.9399C24.6701 13.2303 33.9519 13.2303 39.6761 18.9399L91.5019 70.766L143.327 18.9399C149.059 13.2303 158.333 13.2303 164.058 18.9399C169.789 24.6495 169.789 33.9464 164.058 39.656L112.232 91.4813L164.058 143.307C169.789 149.09 169.789 158.313 164.058 164.096ZM132.962 91.4813L174.43 50.0499C185.871 38.6307 185.871 20.0385 174.43 8.6193C162.974 -2.8731 144.411 -2.8731 132.962 8.6193L91.5019 50.0499L50.0414 8.6193C38.6002 -2.8731 20.0367 -2.8731 8.58087 8.6193C-2.86029 20.0385 -2.86029 38.6307 8.58087 50.0499L50.0414 91.4813L8.58087 132.986C-2.86029 144.405 -2.86029 162.998 8.58087 174.417C20.0367 185.91 38.6002 185.91 50.0414 174.417L91.5019 132.986L132.962 174.417C144.411 185.91 162.974 185.91 174.43 174.417C185.871 162.998 185.871 144.405 174.43 132.986L132.962 91.4813Z" fill="white"/>
</svg>
