<svg width="37" height="39" viewBox="0 0 37 39" fill="none" xmlns="http://www.w3.org/2000/svg">
<path d="M35.1796 12.9023V1.07002C35.1796 0.671375 34.7591 0.417292 34.4086 0.601281C32.8578 1.42923 29.3051 3.31293 26.9965 4.53514C24.4907 3.27789 21.6345 2.57259 18.5856 2.57259C15.5366 2.57259 12.711 3.28227 10.2316 4.53514C7.92295 3.31293 4.33517 1.40733 2.77126 0.579382C2.42081 0.391013 2.00027 0.645092 2.00027 1.04373V13.06C0.970807 15.3116 0.401306 17.8086 0.401306 20.4195C0.401306 22.7851 0.87443 25.085 1.82066 27.1789C4.45783 33.5353 10.8098 38.1963 18.5856 38.1963C28.9284 38.1963 36.8355 30.0176 36.8355 20.4195C36.8355 17.7254 36.2441 15.1802 35.1796 12.9023ZM18.5856 30.0877C12.8381 30.0877 8.64577 25.488 8.64577 20.4195C8.64577 19.136 8.91738 17.8524 9.39049 16.6346C10.8799 13.187 14.3275 10.6856 18.5856 10.6856C23.7898 10.6856 28.521 14.6721 28.521 20.4195C28.521 25.6238 24.3286 30.0877 18.5856 30.0877Z" fill="white"/>
</svg>
