<svg width="255" height="61" viewBox="0 0 255 61" fill="none" xmlns="http://www.w3.org/2000/svg">
<path d="M0 23.3885C0 22.3065 -3.55109e-06 20.2125 1.89245 17.5096C2.83868 16.2261 4.25803 15.1441 6.15049 14.3993C7.97723 13.6546 9.93541 13.3173 11.898 13.3173C17.3782 13.3173 22.3415 15.6697 24.6239 20.5323C24.9524 21.2376 24.6501 22.0349 23.9273 22.3196C22.5343 22.8628 20.8083 23.5068 19.4985 23.9843C18.872 24.2121 18.1799 23.9273 17.8907 23.3272C16.8613 21.1938 14.9951 19.7394 12.3711 19.7394C10.0055 19.7394 8.04295 21.0229 7.77572 23.5243C7.77572 23.8616 7.77572 24.1332 7.84143 24.269C8.38026 28.3913 12.4368 28.0539 16.7649 28.7987C18.929 29.136 21.0229 29.7449 22.8497 31.3657C24.6764 32.9866 25.4168 34.8791 25.4869 37.1132V37.3848C25.4869 43.9427 19.2006 47.6575 12.98 47.6575C7.99914 47.6575 3.52208 45.8133 0.972514 41.6648C0.538825 40.9551 0.81043 40.1008 1.57705 39.7723H1.59019C1.59019 39.7723 1.634 39.746 1.6559 39.7372C3.19352 38.9443 4.8319 38.1558 6.12859 37.4943C6.75503 37.1745 7.52602 37.4111 7.85457 38.0332C8.87527 39.9738 10.8554 41.4413 13.1158 41.4413C15.3762 41.4413 17.3081 40.022 17.5096 37.7922V37.249C17.5096 34.7476 15.5471 33.8014 12.0995 33.5298C8.85337 33.2582 4.66544 32.6493 2.02826 29.4733C1.28354 28.5928 0.674628 27.445 0.337315 26.0257C0.135803 25.1452 0 24.269 0 23.3885Z" fill="white"/>
<path d="M46.4441 12.5726C47.8634 12.5726 49.147 12.7084 50.3648 12.98L51.0219 13.1114L51.0569 13.1202C51.2585 13.1859 51.5213 13.2516 51.7184 13.3173C59.2226 15.4814 64.6984 22.3065 64.6984 30.4195C64.6984 30.8707 64.6371 31.3219 64.6327 31.7731C64.6327 31.8126 64.6327 31.8564 64.6239 31.8958C64.5451 32.6668 64.4224 33.4115 64.256 34.1387C64.0676 34.9448 63.2046 35.3828 62.4336 35.0718C59.7614 33.9942 56.8614 33.4597 53.8168 33.4597C50.7722 33.4597 48.0825 33.9591 45.4234 34.9185C44.5735 35.2251 43.6799 34.5856 43.6799 33.6788V28.7242C43.6799 28.1197 44.0917 27.594 44.6787 27.4407C48.0693 26.5733 51.1621 26.2929 53.7511 26.2929H54.6141C55.0171 26.2929 55.2756 25.8592 55.074 25.5132C53.5759 22.9373 50.5357 20.6856 46.4485 20.6856C40.9726 20.6856 36.5131 25.0795 36.5131 30.4195C36.5131 35.7596 41.1084 40.0877 46.4485 40.0877C48.8184 40.0877 50.8905 39.3956 52.6647 37.9718C53.1728 37.5644 53.9701 37.6433 54.4126 38.1252C55.5515 39.3693 57.0016 40.9376 58.3026 42.3394C58.8371 42.9132 58.7582 43.7719 58.1449 44.2581C55.0697 46.6938 51.0263 48.1964 46.4485 48.1964C36.1714 48.1964 28.2642 40.0833 28.2642 30.4195C28.2642 20.7557 36.3773 12.5726 46.4485 12.5726H46.4441Z" fill="white"/>
<path d="M109.211 0H114.897C115.624 0 116.211 0.587012 116.211 1.31421V15.1002C116.211 15.5383 116.715 15.7793 117.061 15.5077C119.562 13.5495 122.392 12.5726 125.608 12.5726C134.597 12.5726 140.616 19.8051 140.616 28.5928V46.006C140.616 46.7332 140.029 47.3202 139.302 47.3202H133.615C132.888 47.3202 132.301 46.7332 132.301 46.006V28.5928C132.301 24.4705 128.919 20.6856 124.258 20.6856C119.597 20.6856 116.215 24.1332 116.215 28.5928V46.006C116.215 46.7332 115.628 47.3202 114.901 47.3202H109.215C108.488 47.3202 107.901 46.7332 107.901 46.006V1.31421C107.901 0.587012 108.488 0 109.215 0H109.211Z" fill="white"/>
<path d="M153.022 13.5188C153.749 13.5188 154.336 14.1058 154.336 14.833V32.2463C154.336 36.6401 157.784 40.1534 162.379 40.1534C162.716 40.1534 162.988 40.0877 163.461 40.0877C167.18 39.5489 170.422 36.3685 170.422 32.2463V14.833C170.422 14.1058 171.009 13.5188 171.736 13.5188H177.422C178.15 13.5188 178.737 14.1058 178.737 14.833V42.519C178.737 51.3767 172.113 60.9047 160.487 60.9047C156.728 60.9047 152.404 59.8928 147.572 57.5097C146.841 57.1505 146.609 56.2086 147.09 55.5472C147.476 55.0215 147.84 54.5046 148.186 54.0095C148.957 52.9012 149.828 51.6922 150.538 50.6977C150.937 50.1326 151.747 49.9749 152.321 50.3604C154.98 52.1565 157.477 52.7961 159.816 52.7961C163.737 52.7961 166.847 50.873 168.622 48.2927C168.898 47.8897 168.512 47.3596 168.043 47.4954C166.457 47.9598 164.67 48.2139 162.725 48.2665C152.111 48.0649 146.026 40.6966 146.026 32.2463V14.833C146.026 14.1058 146.613 13.5188 147.34 13.5188H153.026H153.022Z" fill="white"/>
<path d="M191.151 13.5188C191.879 13.5188 192.466 14.1058 192.466 14.833V32.2463C192.466 36.7759 195.913 40.1534 200.509 40.1534C204.631 40.1534 208.552 36.8416 208.552 32.2463V14.833C208.552 14.1058 209.139 13.5188 209.866 13.5188H215.552C216.279 13.5188 216.866 14.1058 216.866 14.833V32.2463C216.866 40.6966 211.929 48.0649 200.846 48.2665C190.232 48.0649 184.147 40.6966 184.147 32.2463V14.833C184.147 14.1058 184.734 13.5188 185.461 13.5188H191.147H191.151Z" fill="white"/>
<path d="M223.595 47.3202C222.868 47.3202 222.281 46.7332 222.281 46.006V28.5928C222.281 20.0066 228.365 12.7741 238.98 12.5726C250.067 12.7741 255 20.0066 255 28.5928V46.006C255 46.7332 254.413 47.3202 253.686 47.3202H248C247.272 47.3202 246.685 46.7332 246.685 46.006V28.5928C246.685 23.9273 242.765 20.6856 238.643 20.6856C234.113 20.6856 230.529 24.1332 230.529 28.5928V46.006C230.529 46.7332 229.942 47.3202 229.215 47.3202H223.599H223.595Z" fill="white"/>
<path d="M102.18 22.9023V11.07C102.18 10.6714 101.759 10.4173 101.409 10.6013C99.8578 11.4292 96.3051 13.3129 93.9965 14.5351C91.4907 13.2779 88.6345 12.5726 85.5856 12.5726C82.5366 12.5726 79.711 13.2823 77.2316 14.5351C74.923 13.3129 71.3352 11.4073 69.7713 10.5794C69.4208 10.391 69.0003 10.6451 69.0003 11.0437V23.06C67.9708 25.3116 67.4013 27.8086 67.4013 30.4195C67.4013 32.7851 67.8744 35.085 68.8207 37.1789C71.4578 43.5353 77.8098 48.1964 85.5856 48.1964C95.9284 48.1964 103.836 40.0176 103.836 30.4195C103.836 27.7254 103.244 25.1802 102.18 22.9023ZM85.5856 40.0877C79.8381 40.0877 75.6458 35.488 75.6458 30.4195C75.6458 29.136 75.9174 27.8524 76.3905 26.6346C77.8799 23.187 81.3275 20.6856 85.5856 20.6856C90.7898 20.6856 95.521 24.6721 95.521 30.4195C95.521 35.6238 91.3286 40.0877 85.5856 40.0877Z" fill="white"/>
</svg>
