<svg width="50" height="39" viewBox="0 0 50 39" fill="none" xmlns="http://www.w3.org/2000/svg">
<path d="M42.3922 3.21741C42.3783 3.19048 42.3553 3.16938 42.3273 3.15789C39.0855 1.67052 35.6645 0.60991 32.1498 0.00260151C32.1179 -0.00333481 32.0849 0.000947724 32.0556 0.0148401C32.0262 0.0287324 32.002 0.0515272 31.9863 0.0799827C31.5205 0.92547 31.0976 1.79392 30.7193 2.68203C26.9307 2.10693 23.0771 2.10693 19.2885 2.68203C18.9077 1.79167 18.478 0.922998 18.0015 0.0799827C17.9852 0.0521456 17.9608 0.0298758 17.9316 0.0160737C17.9024 0.00227158 17.8698 -0.00242302 17.8379 0.00260151C14.3229 0.608635 10.9017 1.66932 7.6603 3.15797C7.63256 3.16973 7.60914 3.18982 7.5933 3.21545C1.11122 12.8956 -0.66447 22.3377 0.206622 31.6629C0.209072 31.6858 0.216094 31.7079 0.227269 31.728C0.238444 31.7481 0.253545 31.7657 0.271673 31.7798C4.04613 34.5745 8.2679 36.7078 12.7568 38.0885C12.7884 38.0979 12.8222 38.0975 12.8536 38.0872C12.8849 38.077 12.9124 38.0573 12.9323 38.031C13.8964 36.7191 14.7507 35.33 15.4864 33.8777C15.4965 33.8578 15.5023 33.8359 15.5034 33.8136C15.5044 33.7913 15.5007 33.769 15.4926 33.7482C15.4844 33.7274 15.4719 33.7086 15.4559 33.693C15.4399 33.6774 15.4208 33.6653 15.3998 33.6577C14.0526 33.1422 12.7484 32.5208 11.4994 31.7994C11.4767 31.7861 11.4577 31.7673 11.444 31.7449C11.4302 31.7224 11.4222 31.697 11.4207 31.6707C11.4191 31.6444 11.424 31.6182 11.435 31.5943C11.446 31.5703 11.4627 31.5495 11.4837 31.5336C11.7458 31.3372 12.008 31.133 12.2583 30.9267C12.2805 30.9084 12.3074 30.8966 12.336 30.8928C12.3645 30.8889 12.3936 30.8931 12.4198 30.9049C20.6026 34.6394 29.4616 34.6394 37.5475 30.9049C37.5738 30.8924 37.6032 30.8876 37.6322 30.8911C37.6611 30.8946 37.6885 30.9063 37.7111 30.9247C37.9614 31.131 38.2236 31.3372 38.4876 31.5336C38.5087 31.5493 38.5256 31.57 38.5367 31.5939C38.5479 31.6177 38.553 31.6439 38.5517 31.6702C38.5503 31.6964 38.5425 31.722 38.5289 31.7445C38.5153 31.7671 38.4964 31.7859 38.4738 31.7994C37.2277 32.5269 35.9223 33.1479 34.5716 33.6557C34.5506 33.6637 34.5316 33.676 34.5157 33.6919C34.4998 33.7077 34.4875 33.7267 34.4794 33.7477C34.4714 33.7686 34.4679 33.7911 34.4691 33.8135C34.4704 33.8359 34.4763 33.8578 34.4866 33.8777C35.2347 35.3219 36.0877 36.7093 37.0388 38.0287C37.0581 38.0557 37.0854 38.076 37.1169 38.0867C37.1484 38.0974 37.1824 38.0979 37.2142 38.0882C41.7112 36.7122 45.9404 34.5788 49.7196 31.7798C49.738 31.7664 49.7533 31.7492 49.7645 31.7294C49.7757 31.7096 49.7826 31.6876 49.7846 31.6649C50.8275 20.884 48.0387 11.5192 42.3922 3.21741ZM16.7085 25.9848C14.2449 25.9848 12.2149 23.724 12.2149 20.9475C12.2149 18.1709 14.2055 15.91 16.7085 15.91C19.231 15.91 21.2413 18.1906 21.2019 20.9473C21.2019 23.724 19.2113 25.9848 16.7085 25.9848ZM33.3225 25.9848C30.8589 25.9848 28.829 23.724 28.829 20.9475C28.829 18.1709 30.8196 15.91 33.3225 15.91C35.8452 15.91 37.8554 18.1906 37.816 20.9473C37.816 23.724 35.8452 25.9848 33.3225 25.9848Z" fill="white"/>
</svg>
