<svg width="50" height="50" viewBox="0 0 50 50" fill="none" xmlns="http://www.w3.org/2000/svg">
<path d="M25 0C28.283 0 31.5339 0.646644 34.5671 1.90301C37.6002 3.15938 40.3562 5.00087 42.6777 7.32233C44.9991 9.6438 46.8406 12.3998 48.097 15.4329C49.3534 18.4661 50 21.717 50 25C50 31.6304 47.3661 37.9893 42.6777 42.6777C37.9893 47.3661 31.6304 50 25 50C13.5 50 3.875 42.3 0.9 31.825L10.475 35.775C11.125 39 14 41.45 17.425 41.45C21.325 41.45 24.5 38.275 24.5 34.375V34.05L33 27.975H33.2C38.4 27.975 42.625 23.75 42.625 18.55C42.625 13.35 38.4 9.125 33.2 9.125C28 9.125 23.75 13.35 23.75 18.55V18.675L17.825 27.325L17.425 27.3C15.95 27.3 14.575 27.75 13.45 28.525L0 23C1.075 10.125 11.825 0 25 0ZM15.7 37.925C17.7 38.75 20 37.825 20.825 35.825C21.65 33.825 20.7 31.55 18.75 30.725L15.55 29.4C16.775 28.95 18.15 28.925 19.45 29.475C20.775 30 21.8 31.025 22.325 32.35C22.875 33.65 22.875 35.1 22.325 36.4C21.25 39.1 18.075 40.4 15.375 39.275C14.125 38.75 13.175 37.8 12.65 36.675L15.7 37.925ZM39.5 18.55C39.5 22.025 36.675 24.85 33.2 24.85C29.75 24.85 26.925 22.025 26.925 18.55C26.9217 17.725 27.0817 16.9076 27.3959 16.1448C27.7101 15.3819 28.1722 14.6889 28.7555 14.1055C29.3389 13.5222 30.0319 13.0601 30.7948 12.7459C31.5576 12.4317 32.375 12.2717 33.2 12.275C36.675 12.275 39.5 15.1 39.5 18.55ZM28.5 18.55C28.5 21.15 30.6 23.275 33.225 23.275C35.825 23.275 37.925 21.15 37.925 18.55C37.925 15.95 35.825 13.825 33.225 13.825C30.6 13.825 28.5 15.95 28.5 18.55Z" fill="white"/>
</svg>
